<svg xmlns="http://www.w3.org/2000/svg" width="452.603" height="316.074" viewBox="0 0 452.603 316.074"><defs><style>.a{fill:#e7faf9;}.b{fill:#454f6b;}.c{fill:#422c4f;}.d{fill:#7ca566;}.e{fill:#638674;}.f{fill:#654059;}.g{fill:#f2c9ad;}.h{fill:#eba58e;}.i{fill:#fff;}.j{fill:#e58064;}.k{fill:#5195a8;}.l{fill:#e78882;}.m{fill:#8c404c;}.n{fill:#a04a5a;}.o{fill:#984058;}.p{fill:#472948;}.q{fill:#6ca8bf;}.r{fill:#e68799;}.s{fill:#e36b85;}.t{fill:#754e6a;}.u{fill:#f4d071;}.v{fill:#eca85e;}.w{fill:#bd6c67;}.x{fill:#a64f5a;}.y{fill:#3e4870;}.z{fill:#6bc5ff;}.aa{fill:#5dabff;}.ab{fill:#df8d6d;}</style></defs><g transform="translate(0.034 0.058)"><g transform="translate(-0.034 -0.058)"><path class="a" d="M342.247,62.774h-2.272a102.955,102.955,0,0,1-70.485-25.441,101.134,101.134,0,0,0-155.8,27.608,39.549,39.549,0,0,0-2.006,4.4c-10.62,27.147-31.383,49.294-58.411,60.215-.769.315-1.482.629-2.139.958A92.548,92.548,0,0,0-.01,215.376C1.1,265.09,41.839,305.31,91.574,305.828a93.1,93.1,0,0,0,19.114-1.769,150.54,150.54,0,0,1,74.567,3.922,101.371,101.371,0,0,0,77.413-6.914c23.854-12.549,50.609-18.275,77.56-17.778h2.1A110.264,110.264,0,0,0,452.567,172.339C452.19,111.943,402.679,62.739,342.247,62.774Z" transform="translate(0.034 -3.582)"/><path class="a" d="M32.8,88.136c-.426,10.592,5.111,21.631,14.681,26.2,9.088,4.348,20.316,2.3,28.782-3.188S90.826,97.211,95.776,88.423c3.586-6.369,6.718-13.15,7.69-20.4,2.615-19.778-15-34.8-32.495-23.658C54.193,55.047,33.709,65.387,32.8,88.136Z" transform="translate(-9.839 -12.166)"/><path class="a" d="M458.084,43.265c4.516.636,9.186.86,13.577-.378s8.494-4.118,10.3-8.305,1.084-9.221-1.112-13.283-5.691-7.194-9.431-9.85C457.707,1.661,436.887-3.485,420.57,2.5c-6.53,2.426-10.515,8.1-8,15.017,2.671,7.362,11.095,12.367,17.527,16.08a77.929,77.929,0,0,0,27.986,9.669Z" transform="translate(-123.885 0.058)"/><path class="b" d="M459.61,390.433l-4.02,42.646H499.7l4.195-13.982,3.726,13.982h41.017L545.37,389Z" transform="translate(-137.058 -117.005)"/><path class="c" d="M504.947,407.554a112.327,112.327,0,0,0,42.38-11.347L546.789,389l-85.76,1.433-.7,7.725C473.788,405.38,489.546,408.386,504.947,407.554Z" transform="translate(-138.484 -117.005)"/><path class="d" d="M455.85,196.72h0a17.135,17.135,0,0,0-12.4,7.69L427.34,229.124l13.745,22.435,14.157-17.205Z" transform="translate(-128.558 -59.15)"/><path class="e" d="M463.483,224.29a97.639,97.639,0,0,0-9.753,29.859l9.459-11.493Z" transform="translate(-136.498 -67.446)"/><path class="f" d="M484.154,158.338a9.787,9.787,0,0,0-.412,5.593,4.463,4.463,0,0,0,4.076,3.37c1.056-.035,2.055-.559,3.118-.587,1.909-.042,3.44,1.475,4.894,2.678a19.226,19.226,0,0,0,25.2-.79c1.769-1.629,3.4-3.7,5.768-4.195,1.3-.259,2.72,0,3.908-.573,1.468-.7,2.1-2.468,2.328-4.083a17.086,17.086,0,0,0-8.075-16.87,21.33,21.33,0,0,0-10.71-2.643,29.321,29.321,0,0,0-14.318,3.734,49.885,49.885,0,0,1-5.984,3.3c-1.9.741-3.943.615-5.831,1.265a2.987,2.987,0,0,0-2.132,2.887,39.586,39.586,0,0,1-1.832,6.914Z" transform="translate(-145.459 -42.154)"/><circle class="g" cx="7.124" cy="7.124" r="7.124" transform="translate(329.019 99.084)"/><path class="h" d="M482.879,150.274a3.677,3.677,0,1,1-1.077-2.607A3.684,3.684,0,0,1,482.879,150.274Z" transform="translate(-143.051 -44.067)"/><circle class="g" cx="7.124" cy="7.124" r="7.124" transform="translate(380.32 94.19)"/><path class="h" d="M556.249,143.274a3.677,3.677,0,1,1-1.075-2.6A3.684,3.684,0,0,1,556.249,143.274Z" transform="translate(-165.127 -41.961)"/><path class="f" d="M481.214,125.459c-3.4-6.292-6.9-13.024-10.312-19.309-1.594-2.95-3.244-6.187-2.664-9.494A9.969,9.969,0,0,1,472.07,90.8c.371-.294.748-.559,1.133-.811a15.45,15.45,0,0,0,6.348-8.872,12.843,12.843,0,0,1,3.1-5.831,10.329,10.329,0,0,1,10.354-2.566,14.3,14.3,0,0,0,9.2-.245,11.228,11.228,0,0,1,9.172.566,12.787,12.787,0,0,1,3.635,3.1,15.975,15.975,0,0,0,9.27,5.572,7.977,7.977,0,0,1,2.629,1.014,10.718,10.718,0,0,1,4.439,6.579,25.167,25.167,0,0,1,.385,8.1c-.6,7.6-4.481,18.652-7.236,25.762Z" transform="translate(-140.828 -21.552)"/><path class="c" d="M507.24,178.148a12.513,12.513,0,0,0,8.949,2.8,12.36,12.36,0,0,0,7.061-3.95,22.072,22.072,0,0,0,1.895-2.3v-4.4H504.521l-.161,5.229a22.473,22.473,0,0,0,2.88,2.629Z" transform="translate(-151.732 -51.198)"/><path class="g" d="M522.656,186.075V176.56a22.08,22.08,0,0,1-1.895,2.3,11.05,11.05,0,0,1-16.01,1.154,22.477,22.477,0,0,1-2.88-2.65l-.3,9.417-5.481,2.006,1.475,1.4a19.813,19.813,0,0,0,29.985-2.915h0Z" transform="translate(-149.244 -53.084)"/><path class="g" d="M529.611,125.08l-3-12.836a7.487,7.487,0,0,0-7.69-5.8,7.481,7.481,0,0,1-7.306-4.516L510.3,98.87a9.088,9.088,0,0,1-8.242,8.76c-2.468.154-5-.7-7.376-.063a7.921,7.921,0,0,0-4.551,3.943,23.42,23.42,0,0,0-2,5.824q-.951,3.915-1.923,7.816l.447,8.459a21.672,21.672,0,0,0,22.8,20.484h0a21.672,21.672,0,0,0,20.491-22.8Z" transform="translate(-146.271 -29.708)"/><path class="f" d="M500.7,118.192a7.236,7.236,0,0,0-5.53,4.635,59,59,0,0,1,12.36-2.293A7.229,7.229,0,0,0,500.7,118.192Z" transform="translate(-148.967 -35.482)"/><circle class="c" cx="2.181" cy="2.181" r="2.181" transform="translate(350.873 89.827)"/><path class="f" d="M533.12,118.192a7.229,7.229,0,0,1,5.53,4.635,58.914,58.914,0,0,0-12.36-2.293A7.229,7.229,0,0,1,533.12,118.192Z" transform="translate(-158.33 -35.482)"/><circle class="c" cx="2.181" cy="2.181" r="2.181" transform="translate(371.287 89.827)"/><path class="h" d="M522.692,145.84l-7.222.21a10.016,10.016,0,0,0,1.321,1.587,2.894,2.894,0,0,0,3.992.056A12.259,12.259,0,0,0,522.692,145.84Z" transform="translate(-155.075 -43.841)"/><path class="i" d="M524.793,153.24a48.777,48.777,0,0,1-18.533.524,8.571,8.571,0,0,0,2.1,4.985,11.557,11.557,0,0,0,2.908,2.468,8.634,8.634,0,0,0,8.389-.245A12.024,12.024,0,0,0,524.793,153.24Z" transform="translate(-152.304 -46.068)"/><path class="d" d="M571.34,197.84h0A23.77,23.77,0,0,1,587.329,211L602.1,243.163l-21.672,15.786-6.082-14.821Z" transform="translate(-171.885 -59.487)"/><path class="e" d="M580.408,250.068a43.65,43.65,0,0,0-2.4-12.339,19.575,19.575,0,0,0-4.523-6.928l1.5,23.245,6.026,14.681a182.19,182.19,0,0,0-.6-18.659Z" transform="translate(-172.529 -69.405)"/><path class="g" d="M603.218,370l2.5-12.339a22.807,22.807,0,0,0,.454-4.069l1.265-54.8a68.792,68.792,0,0,0-3.111-22.1L601.3,267l-16.282,11.885,5.034,11.263,2.622,63.619-4.957,5.712a13.109,13.109,0,0,0-2.636,4.782l-2.6,8.634a1.95,1.95,0,0,0,3.258,1.923l6.089-6.236-2.321,8.487h0l13.241-5.1C602.9,371.322,603.093,370.671,603.218,370Z" transform="translate(-175.212 -80.297)"/><path class="h" d="M589.307,422.247l-7.466,11.263,3.964-.86a22.449,22.449,0,0,0,16.779-15.5Z" transform="translate(-175.045 -125.475)"/><path class="c" d="M586.14,278.837l16.282-11.857.825,2.636-14.374,15.339Z" transform="translate(-176.339 -80.291)"/><path class="d" d="M483.9,193.436l-19.575,1.846-1.461,92.549-7.285,46.414,19.17,3.621a141.221,141.221,0,0,0,59.634-1.524l13.339-3.244-5.355-47.155-5.831-89.878-21.148-4.125h0a19.813,19.813,0,0,1-29.985,2.915Z" transform="translate(-137.055 -57.712)"/><path class="e" d="M525.273,201.749a29.789,29.789,0,0,1-7.334,3.356,24.713,24.713,0,0,1-17.408-1.1,29.567,29.567,0,0,1-6.851-4.251,18.436,18.436,0,0,0,6.04,5.81,20.274,20.274,0,0,0,18.827,1.188,18.436,18.436,0,0,0,6.725-5Z" transform="translate(-148.519 -60.062)"/><path class="e" d="M535.362,271.313a109.366,109.366,0,0,1-15.485-5.39,91.072,91.072,0,0,1-29.733-20.861A109.672,109.672,0,0,1,479.81,232.33a50.392,50.392,0,0,0,7.627,15,59.669,59.669,0,0,0,31.229,21.917,50.546,50.546,0,0,0,16.695,2.069Z" transform="translate(-144.345 -69.865)"/><path class="e" d="M549.2,253.14a40.931,40.931,0,0,1-6.215,4.355,35.781,35.781,0,0,1-16.08,4.649,41.029,41.029,0,0,1-7.585-.378,21.2,21.2,0,0,0,7.557,2.013,25.133,25.133,0,0,0,17.009-4.894A21.184,21.184,0,0,0,549.2,253.14Z" transform="translate(-156.233 -76.126)"/><path class="e" d="M537.428,379.17c-5.09.79-10.864,1.734-17.016,2.517s-12.668,1.447-19.212,1.825-13.087.482-19.289.4-12.046-.35-17.191-.545a82.937,82.937,0,0,0,16.9,4.195,100.386,100.386,0,0,0,39.493-2.279,82.629,82.629,0,0,0,16.31-6.11Z" transform="translate(-139.805 -114.047)"/><path class="e" d="M548.061,354.36c-5.418,2.608-12.276,6.1-19.31,9.207s-14.213,5.88-19.792,8.145a67.861,67.861,0,0,0,39.1-17.352Z" transform="translate(-153.116 -106.582)"/><path class="e" d="M471.85,351.37a43.2,43.2,0,0,0,8.243,4.544,52.622,52.622,0,0,0,10.277,3.132,51.812,51.812,0,0,0,10.7.972,42.8,42.8,0,0,0,9.333-1.1,145,145,0,0,1-38.556-7.543Z" transform="translate(-141.95 -105.683)"/><path class="c" d="M267.333,176.61a17.177,17.177,0,0,0,5.32-4.663V166.41l-19.813,2.328V174.3a12.738,12.738,0,0,0,5.013,3.132A12.241,12.241,0,0,0,267.333,176.61Z" transform="translate(-76.053 -50.03)"/><path class="h" d="M267.33,178.984a12.242,12.242,0,0,1-9.487.8,12.738,12.738,0,0,1-5.013-3.132v11.92l2.307.7a25.937,25.937,0,0,0,17.478-.7V174.3A17.178,17.178,0,0,1,267.33,178.984Z" transform="translate(-76.05 -52.404)"/><path class="j" d="M252.84,194.71l12.584,14.045,7.229-14.045h0a25.937,25.937,0,0,1-17.478.7Z" transform="translate(-76.053 -58.546)"/><path class="k" d="M219.583,343.05l-.993,9.438H292.7l-1.1-9.438Z" transform="translate(-65.747 -103.179)"/><circle class="h" cx="6.642" cy="6.642" r="6.642" transform="translate(154.164 103.719)"/><path class="l" d="M232.075,156.214a3.677,3.677,0,1,1-1.075-2.6A3.677,3.677,0,0,1,232.075,156.214Z" transform="translate(-67.592 -45.854)"/><circle class="h" cx="6.642" cy="6.642" r="6.642" transform="translate(202.48 95.504)"/><path class="l" d="M301.189,144.464a3.684,3.684,0,1,1-3.684-3.684,3.684,3.684,0,0,1,3.684,3.684Z" transform="translate(-88.383 -42.319)"/><path class="m" d="M231.212,133.353l-8.257-18.547a14.814,14.814,0,0,1,2.027-15.38c1.524-1.874,3.034-3.733,4.488-5.418,2.265-2.629,4.586-5.306,7.585-7.04a15.541,15.541,0,0,1,19.372,3.069c2.307-1.566,5.173-3.565,7.921-3.1,2.237.378,3.992,2.1,5.593,3.67l3.167,3.181a13.675,13.675,0,0,1,3.7,12.493l-4.628,21.805Z" transform="translate(-66.674 -25.495)"/><path class="h" d="M271.694,120.327a19.185,19.185,0,0,1-10.934-7.487,29.3,29.3,0,0,1-23.322,12.381l-2.1,16.548a20.8,20.8,0,0,0,22.3,15.639h0a20.792,20.792,0,0,0,18.666-20.882Z" transform="translate(-70.787 -33.912)"/><path class="m" d="M248.976,131.831a7.145,7.145,0,0,0-4.446,4.544l10.759-3.733A7.152,7.152,0,0,0,248.976,131.831Z" transform="translate(-73.552 -39.507)"/><circle class="c" cx="1.839" cy="1.839" r="1.839" transform="translate(176.494 98.468)"/><path class="m" d="M277.869,127.7a7.145,7.145,0,0,1,5.509,3.181l-11.368-.7a7.124,7.124,0,0,1,5.859-2.482Z" transform="translate(-81.821 -38.38)"/><circle class="c" cx="1.839" cy="1.839" r="1.839" transform="translate(192.196 96.944)"/><path class="l" d="M269.385,152l-5.285.524a2.943,2.943,0,0,0,2.727,1.72A3.258,3.258,0,0,0,269.385,152Z" transform="translate(-79.441 -45.695)"/><path class="i" d="M272.58,157a39.066,39.066,0,0,1-13.36,3.286,6.767,6.767,0,0,0,4.894,4.341,6.467,6.467,0,0,0,6.138-1.964A11.479,11.479,0,0,0,272.58,157Z" transform="translate(-77.972 -47.199)"/><path class="n" d="M238.54,106.955c3.279.1,7.138-.182,11-.426s7.69-.482,10.948-1.007a20.73,20.73,0,0,0-21.945,1.433Z" transform="translate(-71.75 -30.963)"/><path class="n" d="M248.72,95.594c2.2.811,4.789,1.643,7.3,2.678s4.943,2.23,7.089,3.195a12.36,12.36,0,0,0-14.388-5.873Z" transform="translate(-74.813 -28.565)"/><path class="n" d="M284.794,100.146a11.186,11.186,0,0,0-12.584,3.125c1.909-.412,4.09-1.056,6.292-1.594S282.913,100.67,284.794,100.146Z" transform="translate(-81.881 -29.858)"/><path class="n" d="M284.6,109.232a12.109,12.109,0,0,0-11.6-3.621,50.593,50.593,0,0,0,5.733,2.1,49.479,49.479,0,0,0,5.866,1.524Z" transform="translate(-82.119 -31.646)"/><path class="o" d="M257.276,423.315l-2.929-32.551a2.643,2.643,0,0,0-2.636-2.4h0a2.643,2.643,0,0,0-2.615,2.279l-4.579,32.677H206.59l3.649-42.793A67.212,67.212,0,0,1,216.9,356.55h69.611l.629,1.489a67.282,67.282,0,0,1,4.782,18.324l5.376,46.952Z" transform="translate(-62.137 -107.241)"/><path class="p" d="M268.19,356.55l-.35,31.81,1.6-1.112a13.08,13.08,0,0,0,5.628-10.752V356.55Z" transform="translate(-80.566 -107.241)"/><path class="p" d="M236.557,356.55,232.712,374.9,230.09,415.45l6.467-40.2Z" transform="translate(-69.208 -107.241)"/><path class="p" d="M303.34,356.55l3.845,18.352,2.622,40.549-6.467-40.2Z" transform="translate(-91.248 -107.241)"/><path class="p" d="M290.807,358.039l-.629-1.489H220.567c-.65,1.314-1.237,2.664-1.8,4.02H291.8C291.485,359.717,291.156,358.878,290.807,358.039Z" transform="translate(-65.802 -107.241)"/><path class="q" d="M190.753,190.618l-54.8-3.328,1.377,19.233,54.125,15.646Z" transform="translate(-40.882 -56.313)"/><path class="k" d="M425.475,70.751l-15.611-6.2-3.524,8.04,15.618,6.2Z" transform="translate(-122.239 -19.382)"/><path class="l" d="M452.266,35.019l2.055-2.859L448.6,29.4a16.345,16.345,0,0,0-19.156,3.663L427.93,34.7l17.716,8.236a70.343,70.343,0,0,0,6.621-7.921Z" transform="translate(-128.735 -8.315)"/><path class="h" d="M421.987,35.491l-3.558,3.859L416.1,35.085a9.019,9.019,0,0,0-7.921-4.705l6.642,21.092-1.454,3.971,10.766,4.265,1.923-4.894,2.412-1.629a71.066,71.066,0,0,0,11.263-9.494Z" transform="translate(-122.793 -9.101)"/><path class="k" d="M275.968,189.74l-2.412.2a5.677,5.677,0,0,0-4.712,3.279l-7.229,14.045-12.584-14.045-.951-1.063a5.7,5.7,0,0,0-4.53-1.881l-3.37.168,22.5,25.105Z" transform="translate(-72.244 -57.05)"/><path class="q" d="M364,84.761l-.44-2.517L347.941,76.05a12.535,12.535,0,0,0-7.928,6.956l-16.981,38.3-46.365,33.508-9.088.7-13.283,25.8-22.5-25.084-18.079.916v85.62a13.36,13.36,0,0,1-.35,3.027l-.762,3.223a13.164,13.164,0,0,0,4.586,13.283l.489.392h72l1.447-1.454a13.15,13.15,0,0,0,2.265-15.569,13.214,13.214,0,0,1-1.559-5.453l-3.551-57.439,51.266-44,23.3-46.2A12.584,12.584,0,0,0,364,84.761Z" transform="translate(-63.84 -22.842)"/><path class="k" d="M264.149,264.648a70.169,70.169,0,0,0,13.577-13.192,59.23,59.23,0,0,0,8.319-14.276c-3.132,3.733-6.767,7.879-10.913,11.969A128.639,128.639,0,0,1,261.4,260.922a127.343,127.343,0,0,1-15.311,9.641c-5.132,2.755-10.165,5.006-14.681,6.893a59.307,59.307,0,0,0,16.08-3.733A70.235,70.235,0,0,0,264.149,264.648Z" transform="translate(-69.605 -71.324)"/><path class="k" d="M245.331,259.536a45.778,45.778,0,0,0,9.857.168,37.681,37.681,0,0,0,8.459-1.741,129.759,129.759,0,0,1-18.009-.832A130.484,130.484,0,0,1,228,253.44a37.961,37.961,0,0,0,7.753,3.8A45.786,45.786,0,0,0,245.331,259.536Z" transform="translate(-68.579 -76.217)"/><path class="k" d="M262.538,317.788a99.1,99.1,0,0,0-29.118,7.425c8.305-.874,18.876-2.37,29.538-3.5s21.3-1.888,29.614-2.8A100.928,100.928,0,0,0,262.538,317.788Z" transform="translate(-70.21 -95.395)"/><path class="k" d="M320.681,203.325c9.753-11.6,22.106-31.9,27.7-45.715-9.04,10.6-20.435,28.978-26.636,42.744a76.748,76.748,0,0,0,2.7-11.885,64.521,64.521,0,0,0,.7-15.919,40.257,40.257,0,0,0-4.831,31.048l-.07.175a1.272,1.272,0,0,1,.091-.112.711.711,0,0,0,.063.231Z" transform="translate(-95.977 -47.383)"/><path class="b" d="M93.569,371.316l-.378,1.1A69.75,69.75,0,0,0,90.9,409.061l3.37,16.324h33.508l3.083-27.265,4.894,27.265h34.019l3.565-23.238A69.736,69.736,0,0,0,168.2,363.43h0Z" transform="translate(-26.892 -109.311)"/><path class="c" d="M146.03,382.068a113.255,113.255,0,0,0,25.077-12.088,68.211,68.211,0,0,0-2.5-6.551h0l-74.63,7.886-.378,1.1a69.993,69.993,0,0,0-2.8,11.3C108.55,389.444,128.272,388.053,146.03,382.068Z" transform="translate(-27.297 -109.311)"/><path class="c" d="M138.688,413.05c-7.837.175-15.38.419-23.218.594a22.805,22.805,0,0,0,11.612,2.8,23.071,23.071,0,0,0,11.605-3.391Z" transform="translate(-34.72 -124.241)"/><path class="c" d="M148.68,410.528c7.571-2.02,14.877-3.908,22.449-5.928a23.231,23.231,0,0,1-10.34,5.873A23.483,23.483,0,0,1,148.68,410.528Z" transform="translate(-44.712 -121.699)"/><path class="g" d="M207.119,273.34,190.34,251.2l12.752-12.039,4.027,5.425Z" transform="translate(-57.247 -71.92)"/><path class="c" d="M203.092,239.16,190.34,251.2l4.418,5.831,9.508-16.289Z" transform="translate(-57.247 -71.92)"/><path class="r" d="M110.645,218.8l-15.38,3.628a46.218,46.218,0,0,0-20.75,11.053l-4.195,3.859,15.632,12.787-.552,8.865a12.7,12.7,0,0,0,4.272,10.3h0a12.71,12.71,0,0,1,4.293,8.711h0a93.912,93.912,0,0,1-4.446,35.263l-6.1,18.687,2.223.58a100.875,100.875,0,0,0,75.148-9.788l4.775-2.7-3.789-7.7A93.933,93.933,0,0,1,152.242,276L152,271.633a12.71,12.71,0,0,1,1.881-7.383l1.07-1.727a12.717,12.717,0,0,0,1.552-9.6l-2.272-9.487,14.22-13.423-11.57-11.556a17.834,17.834,0,0,0-15.926-4.894l-7.935,1.524h0a17.135,17.135,0,0,1-19.1,4.978Z" transform="translate(-21.135 -64.124)"/><path class="s" d="M150.24,222.81a31.784,31.784,0,0,1-5.656,2.51A28.572,28.572,0,0,1,131,226.389a31.807,31.807,0,0,1-5.97-1.594,16.863,16.863,0,0,0,5.677,2.894,20.17,20.17,0,0,0,14.374-1.133,17.017,17.017,0,0,0,5.159-3.747Z" transform="translate(-37.596 -67)"/><path class="s" d="M156.226,287.425a26.014,26.014,0,0,0-8.466-3.824,29.363,29.363,0,0,0-20.931,2.419,26.062,26.062,0,0,0-7.369,5.663,52.259,52.259,0,0,1,8.166-3.887,41.373,41.373,0,0,1,19.764-2.286,51.236,51.236,0,0,1,8.837,1.916Z" transform="translate(-35.92 -85.013)"/><path class="s" d="M137.233,248.843a51.941,51.941,0,0,0-29.363-9.263c4.153,1.258,9.508,2.692,14.793,4.369S133.129,247.487,137.233,248.843Z" transform="translate(-32.433 -72.046)"/><path class="s" d="M161.177,233.85A37.647,37.647,0,0,0,143,241.2c2.573-.965,5.81-2.349,9.088-3.663S158.688,234.948,161.177,233.85Z" transform="translate(-43.003 -70.322)"/><path class="s" d="M163.705,356.37c-4.321,2.1-9.263,4.39-14.639,6.439a126.884,126.884,0,0,1-34.711,8.068c-5.726.524-11.186.65-15.975.664a59.7,59.7,0,0,0,16.08,2.761,70.61,70.61,0,0,0,36.053-8.389,59.823,59.823,0,0,0,13.192-9.543Z" transform="translate(-29.578 -107.187)"/><path class="s" d="M167.232,342c-3.908,3.09-8.858,7.075-14.108,10.661s-10.731,6.788-15.024,9.326A50.693,50.693,0,0,0,167.232,342Z" transform="translate(-41.529 -102.863)"/><path class="s" d="M92.947,242.92a26.045,26.045,0,0,0-.482,15.73A25.94,25.94,0,0,0,92.947,242.92Z" transform="translate(-27.5 -73.051)"/><path class="s" d="M87.23,250.37a18.338,18.338,0,0,0,4.195,10.284A18.366,18.366,0,0,0,87.23,250.37Z" transform="translate(-26.223 -75.293)"/><path class="s" d="M189.723,233.3a26.576,26.576,0,0,0,.091,16.08A26.576,26.576,0,0,0,189.723,233.3Z" transform="translate(-56.701 -70.157)"/><path class="s" d="M194.61,238.38a21.414,21.414,0,0,0-4.3,12.227,21.4,21.4,0,0,0,4.3-12.228Z" transform="translate(-57.238 -71.685)"/><path class="g" d="M82.826,315.092l-6.949,3.363L46.633,291.888l26.923-30.8-13.926-11.4L31.406,285.513a10.668,10.668,0,0,0,1.874,15.052L68.186,327.4a8.711,8.711,0,0,0,7.921,1.4l2.664-.832h0L87.706,314.5A7.5,7.5,0,0,0,82.826,315.092Z" transform="translate(-8.738 -75.088)"/><path class="h" d="M113.7,345.563a7.474,7.474,0,0,0-4.677-3.153l-8.935,13.465a14.681,14.681,0,0,0,13.766,2.181l6.684-2.356Z" transform="translate(-30.092 -102.987)"/><path class="c" d="M72.242,249.69l13.926,11.389-9.851,11.27L71.04,251.214Z" transform="translate(-21.351 -75.088)"/><path class="h" d="M49.968,308.711l-9.788-2.1,2.426-.734a6.4,6.4,0,0,1,7.362,2.845Z" transform="translate(-12.066 -91.911)"/><path class="q" d="M84.307,205.05,70.429,216.9a8.173,8.173,0,0,0-2.671,7.956h0l3.845-3.027,8.851,13.045L96.415,220.43Z" transform="translate(-20.307 -61.657)"/><path class="l" d="M53.1,266.09l.65,1.923A22.714,22.714,0,0,0,68.517,282.47l5.7,1.783-2.153-17.121L52.64,263.44a9.089,9.089,0,0,0,.461,2.65Z" transform="translate(-15.815 -79.226)"/><path class="h" d="M75.96,242.1,67.11,229.05l-5.257,4.16a10.144,10.144,0,0,0-2.978,3.817l-5.439,12.088a9.018,9.018,0,0,0-.8,4L72.066,256.8l-.412-3.265,2.244,3.614a6.425,6.425,0,0,0,6.732,2.908h0Z" transform="translate(-15.813 -68.878)"/><path class="g" d="M145.906,197.37c-.119.58-.259,1.161-.426,1.734a11.4,11.4,0,0,1-3.607,5.7c-3.02,2.4-7.432,2.44-10.969.909a18.471,18.471,0,0,1-5.593-3.908l1.881,12.22,3.293,1.237a17.135,17.135,0,0,0,19.079-4.95h0Z" transform="translate(-37.681 -59.346)"/><path class="c" d="M141.725,203.98a11.4,11.4,0,0,0,3.593-5.719c.168-.573.308-1.154.426-1.734l-.531-1.888-20.393,3.936.364,2.4a18.471,18.471,0,0,0,5.593,3.908C134.307,206.441,138.718,206.4,141.725,203.98Z" transform="translate(-37.533 -58.524)"/><path class="c" d="M123.608,189.871a15.15,15.15,0,0,0-8.641,5.593c-3.565,4.642-3.929,10.808-8.166,15.038-2.8,2.8-7.047,4.369-10.794,3.132a9.2,9.2,0,0,1-2.748-1.489,19.17,19.17,0,0,0,4.649,6.467c2.9,2.545,6.991,3.957,10.7,3.069a11.556,11.556,0,0,0,6.809-4.936,16.079,16.079,0,0,0,2.5-8.131c.224-4.607-1.147-9.123-2.5-13.535a82.1,82.1,0,0,1,15.017-4.894,13.4,13.4,0,0,0-6.83-.315Z" transform="translate(-28.037 -56.999)"/><path class="f" d="M147.236,179.787a9.232,9.232,0,0,0,8.061-4.034,13.066,13.066,0,0,0,2.1-4.859,36.353,36.353,0,0,0-3.02-11.626c-2.8-6.628-6.746-12.857-8.389-19.869s-1.021-14.73-4.894-20.764a20.708,20.708,0,0,0-6.67-6.292c-10.766-6.656-25.867-5.264-35.249,3.251s-8.858,20.365-6.991,32.893c1.056,7.2-2.041,14.311-2.845,21.547a34.5,34.5,0,0,0,1.4,14.325,29.005,29.005,0,0,0,1.279,3.3,9.2,9.2,0,0,0,2.748,1.482c3.747,1.237,8-.343,10.794-3.132,4.237-4.195,4.6-10.4,8.166-15.038a15.15,15.15,0,0,1,8.641-5.593,13.4,13.4,0,0,1,6.83.315,35.139,35.139,0,0,1,5.4-.7c-.049,1.307-.1,2.629-.1,3.95,1.7,1.685,3.1,3.7,4.635,5.551C141.238,177.068,143.936,179.48,147.236,179.787Z" transform="translate(-26.79 -32.5)"/><path class="c" d="M174.823,201.928a9.232,9.232,0,0,1-8.061,4.034c-3.3-.308-6-2.72-8.117-5.271-1.531-1.853-2.936-3.866-4.635-5.551a27.167,27.167,0,0,0,1.587,10.375c1.825,4.481,6.222,8.3,11.046,7.844,3.887-.371,7.117-3.44,8.739-6.991a19.058,19.058,0,0,0,1.517-9.291A13.067,13.067,0,0,1,174.823,201.928Z" transform="translate(-46.316 -58.675)"/><path class="g" d="M143.847,152.9a29.971,29.971,0,0,1-19.275-13.374A34.76,34.76,0,0,1,105.85,160.5l.923,6.816c1.517,11.221,11.333,19.163,21.917,17.729s17.925-11.7,16.408-22.917Z" transform="translate(-31.825 -41.943)"/><path class="f" d="M119.171,160.482a6.425,6.425,0,0,0-3.9,4.195l9.6-3.628A6.46,6.46,0,0,0,119.171,160.482Z" transform="translate(-34.66 -48.122)"/><path class="c" d="M126.277,166.941a3.628,3.628,0,0,0-1.8-1.216,4.383,4.383,0,0,0-4.691,1.4,3.6,3.6,0,0,0-.832,2.006,7.264,7.264,0,0,1,7.327-2.2Z" transform="translate(-35.767 -49.764)"/><path class="f" d="M145.677,156.723a6.474,6.474,0,0,1,4.831,3.118l-10.228-1.147A6.467,6.467,0,0,1,145.677,156.723Z" transform="translate(-42.185 -47.104)"/><path class="c" d="M141.35,164.562a3.6,3.6,0,0,1,1.447-1.622,4.383,4.383,0,0,1,4.894.2A3.579,3.579,0,0,1,149,164.87a7.32,7.32,0,0,0-7.641-.308Z" transform="translate(-42.507 -48.791)"/><path class="h" d="M138.613,177.66l-5.733,1.174a3.4,3.4,0,0,0,3.139,1.475A3.859,3.859,0,0,0,138.613,177.66Z" transform="translate(-39.958 -53.415)"/><path class="i" d="M141.79,182.17a33.557,33.557,0,0,1-16.38,4.481,17.526,17.526,0,0,0,3.356,3.782,8.075,8.075,0,0,0,4.67,1.776,7.523,7.523,0,0,0,5.928-3.1A13.339,13.339,0,0,0,141.79,182.17Z" transform="translate(-37.711 -54.772)"/><path class="t" d="M108.35,142.8a22.113,22.113,0,0,0,13.682-15.311,63.619,63.619,0,0,0-7.341,7.208,62.4,62.4,0,0,0-6.341,8.1Z" transform="translate(-32.578 -38.32)"/><path class="t" d="M104.84,131.618a18.107,18.107,0,0,0,14.374-7.858,57.012,57.012,0,0,0-14.374,7.858Z" transform="translate(-31.521 -37.198)"/><path class="t" d="M147.03,133.916c-1.937-1.328-4.383-2.65-6.816-3.978s-4.894-2.657-7.054-3.558a15.1,15.1,0,0,0,13.87,7.536Z" transform="translate(-40.043 -37.986)"/><path class="t" d="M147.893,125.109A22.162,22.162,0,0,0,134.47,123.2,22.386,22.386,0,0,0,147.893,125.109Z" transform="translate(-40.437 -36.925)"/><path class="u" d="M420.587,233.58h0a15.786,15.786,0,0,1,12.388,10.731L448.307,291.9l20.274-21.672,1.692,5.782a6.991,6.991,0,0,0,4.894,4.789l6.69,1.783-28.069,28.894a10.7,10.7,0,0,1-17.82-4.055L420,259.741Z" transform="translate(-126.349 -70.241)"/><path class="v" d="M502.773,298.367l-5.132-9.438L489.49,286l1.692,5.782a6.991,6.991,0,0,0,4.894,4.789Z" transform="translate(-147.258 -86.014)"/><path class="w" d="M505.5,260.48l.517,2.055a12.584,12.584,0,0,1-.426,7.467l-2.8,7.39a39.228,39.228,0,0,1-6.732,11.514h0a6.991,6.991,0,0,1-4.894-4.789l-1.678-5.8,3.5-11.3Z" transform="translate(-147.258 -78.335)"/><path class="x" d="M494.247,260.331h0a20.044,20.044,0,0,1,5.453-19.037l3.167-3.1,3.894,15.583-12.514,6.558Z" transform="translate(-148.52 -71.628)"/><path class="v" d="M431.347,267.4l-10.06-22.288-.867-1.021L420,262.9l12.976,38.717,1.559-8.886A43.38,43.38,0,0,0,431.347,267.4Z" transform="translate(-126.349 -73.403)"/><path class="y" d="M314.535,375.43l-.44,2.629a114.27,114.27,0,0,0-.063,37.095L316.3,429h34.795l3.719-22.141L357.74,429h36.221l2.027-9.235a72.2,72.2,0,0,0-2.027-38.3h0Z" transform="translate(-94.018 -112.922)"/><path class="c" d="M333.984,403.478c1.063-3.5,2.608-7.131,3.663-10.641,12.738,4.957,27.126,6.138,40.1,1.86.531,2.8,1.2,5.977,1.734,8.774,5.593-.8,11.3-3.2,15.185-7.341a25.463,25.463,0,0,0,2.223-2.747,72.1,72.1,0,0,0-2.859-11.927l-79.412-6.026-.44,2.629a112.793,112.793,0,0,0-1.4,12.8A36.438,36.438,0,0,0,333.984,403.478Z" transform="translate(-94.088 -112.922)"/><path class="c" d="M377.259,182.974a7.893,7.893,0,0,1-5.551,2.426,8.166,8.166,0,0,1-5.656-2.454,14.164,14.164,0,0,1-12.584,2.985,14.339,14.339,0,0,1-9.515-8.886,10.843,10.843,0,0,1-11.465-5.159,10.648,10.648,0,0,1,1.657-12.339,11.1,11.1,0,0,1,4.516-20.037c-2.489-3.649-2.146-9.788.364-13.43a11.319,11.319,0,0,1,11.633-4.46c.524-3.349,2.426-6.621,5.551-7.935a10.193,10.193,0,0,1,9.683,1.1,12.081,12.081,0,0,1,10.773-4.551,12.465,12.465,0,0,1,9.613,6.942,11.069,11.069,0,0,1,9.788,2.859,10.382,10.382,0,0,1,2.866,9.438,10.906,10.906,0,0,1,7.215,7.369,10.724,10.724,0,0,1-2.475,9.913c2.741,2.335,4.621,6.061,4.02,9.613a10.633,10.633,0,0,1-6.558,8.012c2.454,3.09,3.356,7.774,1.44,11.186a10.284,10.284,0,0,1-9.934,5.1,8.627,8.627,0,0,1-6.376,5.446A10.9,10.9,0,0,1,377.259,182.974Z" transform="translate(-99.093 -33.107)"/><path class="c" d="M374.515,217.049c2.384,2.216,5.593,3.768,8.83,3.454a11.556,11.556,0,0,0,7.1-3.845,19.636,19.636,0,0,0,1.4-1.671V210.31l-19.226-1.14v5.817a20.531,20.531,0,0,0,1.895,2.062Z" transform="translate(-112.093 -62.896)"/><path class="w" d="M389.062,225.83v-8.34a19.625,19.625,0,0,1-1.4,1.671,11.556,11.556,0,0,1-7.1,3.845,11.722,11.722,0,0,1-8.83-3.454,20.526,20.526,0,0,1-1.916-2.062v7.033l-6.376.874,2.314,2.1a20.037,20.037,0,0,0,27.307-.426h0Z" transform="translate(-109.331 -65.4)"/><path class="s" d="M378.24,135.55a19.4,19.4,0,0,0-19.4,19.4v7.061a19.4,19.4,0,1,1,38.8,0V154.95a19.393,19.393,0,0,0-19.4-19.4Z" transform="translate(-107.947 -40.745)"/><path class="c" d="M367.356,160.171a12.507,12.507,0,0,0,15.786-7.411,9.975,9.975,0,0,0,3.5,7.613,9.214,9.214,0,0,0,7.872,1.559,9.788,9.788,0,0,0,3.181,6.7V165.05a19.4,19.4,0,1,0-38.8,0v2.894a12.164,12.164,0,0,0,8.466-7.774Z" transform="translate(-107.962 -43.784)"/><path class="w" d="M394.475,164.992a9.214,9.214,0,0,1-7.872-1.559,10.018,10.018,0,0,1-3.5-7.613,12.507,12.507,0,0,1-15.751,7.411A12.165,12.165,0,0,1,358.89,171v9.445a19.4,19.4,0,1,0,38.8,0v-8.76a9.788,9.788,0,0,1-3.216-6.7Z" transform="translate(-107.962 -46.844)"/><path class="c" d="M372.987,170.26a6.907,6.907,0,0,0-5.467,2.8l11.011-.147a6.914,6.914,0,0,0-5.544-2.65Z" transform="translate(-110.559 -51.189)"/><path class="c" d="M376.374,179.66a1.727,1.727,0,1,1-1.727-1.72,1.727,1.727,0,0,1,1.727,1.72Z" transform="translate(-112.183 -53.5)"/><path class="c" d="M399.794,170.26a6.907,6.907,0,0,1,5.467,2.8l-11.011-.147A6.914,6.914,0,0,1,399.794,170.26Z" transform="translate(-118.601 -51.189)"/><path class="c" d="M399.66,179.66a1.727,1.727,0,1,0,1.727-1.72,1.727,1.727,0,0,0-1.727,1.72Z" transform="translate(-120.229 -53.5)"/><path class="x" d="M390.731,190.052a38.753,38.753,0,0,0-9.221,0,5.029,5.029,0,0,0,5.1,2.622C388.089,192.387,389.543,191.107,390.731,190.052Z" transform="translate(-114.768 -57.061)"/><path class="i" d="M394.119,196.922a71.379,71.379,0,0,1-19.869-.182,12.926,12.926,0,0,0,3.342,5.453,9.578,9.578,0,0,0,5.74,2.426,10.144,10.144,0,0,0,6.418-2.1A17.5,17.5,0,0,0,394.119,196.922Z" transform="translate(-112.584 -59.156)"/><path class="u" d="M316.214,227.292h0a12.151,12.151,0,0,0-12.241,8.389l-16.08,49.9-20.274-21.673-1.685,5.817a6.991,6.991,0,0,1-4.894,4.789L254.35,276.3l28.069,28.873a10.7,10.7,0,0,0,17.827-4.055l15.975-47.672Z" transform="translate(-76.507 -68.343)"/><path class="v" d="M335.337,243.34l-2.209,3.055-11.444,18.876a25.965,25.965,0,0,0-3.649,16.08L320.25,303.3l15.087-45.016Z" transform="translate(-95.63 -73.178)"/><path class="v" d="M254.34,292.063l5.131-9.438,8.152-2.915-1.692,5.8a6.991,6.991,0,0,1-4.894,4.789Z" transform="translate(-76.504 -84.121)"/><path class="w" d="M250.056,254.17l-.517,2.055a12.584,12.584,0,0,0,.426,7.467l2.8,7.39a39.229,39.229,0,0,0,6.732,11.514h0a6.991,6.991,0,0,0,4.894-4.789l1.692-5.782-3.5-11.3Z" transform="translate(-74.947 -76.436)"/><path class="x" d="M262.951,254.021h0a20.03,20.03,0,0,0-5.453-19.037l-3.174-3.1-3.894,15.583,12.514,6.558Z" transform="translate(-75.328 -69.73)"/><path class="z" d="M357.892,228.8l-3.419,18.876a155.748,155.748,0,0,0-2.307,35.55h0a156.145,156.145,0,0,1-3.041,39.3l-4.195,20.232h0a73.666,73.666,0,0,0,44.254,2.664l.825-.21-2.622-23.12a143.926,143.926,0,0,1,.65-37.263h0a143.439,143.439,0,0,0,1.154-31.922l-1.7-22.462h0a20.037,20.037,0,0,1-27.307.426Z" transform="translate(-103.762 -68.803)"/><path class="aa" d="M388.517,240.608a26.012,26.012,0,0,1-6.187,1.9,21.428,21.428,0,0,1-13.884-2.216,25.972,25.972,0,0,1-5.285-3.733,15.513,15.513,0,0,0,4.551,4.929,17.156,17.156,0,0,0,14.947,2.37A15.563,15.563,0,0,0,388.517,240.608Z" transform="translate(-109.247 -71.138)"/><path class="aa" d="M394.157,312.162a37.534,37.534,0,0,0-10.675-6.537,43.505,43.505,0,0,0-14.052-3.16,59.01,59.01,0,0,0-14.227,1.251c-4.425.839-8.487,1.748-12.123,2.335a60.124,60.124,0,0,0,12.43.273,121.141,121.141,0,0,1,13.731-.357,66.414,66.414,0,0,1,13.4,2.146A81.845,81.845,0,0,1,394.157,312.162Z" transform="translate(-103.205 -90.958)"/><path class="aa" d="M374.868,274.641A51.084,51.084,0,0,0,352,255.22c3.237,2.692,7.494,6.005,11.6,9.5S371.68,271.845,374.868,274.641Z" transform="translate(-105.889 -76.752)"/><path class="aa" d="M390.563,382.132a99.273,99.273,0,0,1-14.346,1.524,81.908,81.908,0,0,1-31.523-5.2A100.768,100.768,0,0,1,331.6,372.4a45.239,45.239,0,0,0,11.822,8.886,53.251,53.251,0,0,0,33.1,5.46,45.008,45.008,0,0,0,14.045-4.614Z" transform="translate(-99.751 -112.01)"/><path class="aa" d="M404.81,370.37a184.224,184.224,0,0,1-18.876,4.67,181.724,181.724,0,0,1-19.344,2.244,43.729,43.729,0,0,0,9.228,1.16,52.839,52.839,0,0,0,20.785-3.761,43.889,43.889,0,0,0,8.208-4.314Z" transform="translate(-110.279 -111.399)"/><path class="u" d="M347.478,228.358l-3.419,18.876a155.748,155.748,0,0,0-2.307,35.55h0a156.145,156.145,0,0,1-3.041,39.3l-5.069,24.588-5.684-1.923a28.153,28.153,0,0,1-16.08-13.891L310.32,327.8l9.431-31.46a30.285,30.285,0,0,0,.608-15.017l-.405-1.937a28.566,28.566,0,0,1,1.867-17.632l9.012-20.155,2.209-14.269Z" transform="translate(-93.348 -68.36)"/><path class="ab" d="M331.253,390.573l-1.741,7.774-2.384-.622A28.265,28.265,0,0,1,309,382.966h0l2.489-7.536h0a28.153,28.153,0,0,0,16.08,13.891Z" transform="translate(-92.951 -112.922)"/><path class="u" d="M405.4,231.17l1.7,22.462a143.438,143.438,0,0,1-1.154,31.949h0a143.926,143.926,0,0,0-.65,37.263l3.013,26.566,3.712-.5a20.428,20.428,0,0,0,13.178-7.4l.825-1.014-3.377-29.747a48.861,48.861,0,0,1,1.454-18.526h0a48.84,48.84,0,0,0-.308-27.112l-7.208-23.889-.7-8.389Z" transform="translate(-121.653 -69.516)"/><path class="ab" d="M412,396.69l.468,7.69,3.083-.734a20.407,20.407,0,0,0,12.661-9.13l.1-.161L427.492,389h0a20.428,20.428,0,0,1-13.178,7.4Z" transform="translate(-123.942 -117.005)"/></g></g></svg>