<?xml version="1.0" encoding="UTF-8"?>
<svg xmlns="http://www.w3.org/2000/svg" xmlns:xlink="http://www.w3.org/1999/xlink" width="16pt" height="16pt" viewBox="0 0 16 16" version="1.1">
<g id="surface4111397">
<path style=" stroke:none;fill-rule:nonzero;fill:rgb(6.27451%,6.666667%,43.137255%);fill-opacity:1;" d="M 8 16 C 3.582031 16 0 12.417969 0 8 C 0 3.582031 3.582031 0 8 0 C 12.417969 0 16 3.582031 16 8 C 16 12.417969 12.417969 16 8 16 Z M 8 16 "/>
<path style=" stroke:none;fill-rule:nonzero;fill:rgb(100%,100%,100%);fill-opacity:1;" d="M 10.378906 4.351562 C 10.222656 4.351562 10.070312 4.410156 9.949219 4.53125 L 9.214844 5.265625 L 10.734375 6.785156 L 11.46875 6.050781 C 11.707031 5.8125 11.707031 5.429688 11.46875 5.191406 L 10.808594 4.53125 C 10.691406 4.410156 10.535156 4.351562 10.378906 4.351562 Z M 8.609375 5.871094 L 5.039062 9.441406 C 5.039062 9.441406 5.316406 9.417969 5.421875 9.519531 C 5.527344 9.625 5.441406 10.304688 5.566406 10.433594 C 5.695312 10.558594 6.371094 10.46875 6.46875 10.566406 C 6.566406 10.664062 6.558594 10.960938 6.558594 10.960938 L 10.128906 7.390625 Z M 4.65625 10.433594 L 4.371094 11.246094 C 4.359375 11.277344 4.351562 11.308594 4.351562 11.34375 C 4.351562 11.511719 4.488281 11.648438 4.65625 11.648438 C 4.691406 11.648438 4.722656 11.640625 4.753906 11.628906 C 4.757812 11.628906 4.757812 11.628906 4.757812 11.628906 L 4.765625 11.628906 C 4.765625 11.625 4.769531 11.625 4.769531 11.625 L 5.566406 11.34375 L 5.113281 10.886719 Z M 4.65625 10.433594 "/>
</g>
</svg>
