<svg xmlns="http://www.w3.org/2000/svg" width="25.051" height="25.051" viewBox="0 0 25.051 25.051"><defs><style></style></defs><path class="a" d="M15.526,3A12.525,12.525,0,0,0,4.378,9.832a1.044,1.044,0,1,0,1.857.95,10.438,10.438,0,1,1,0,9.488,1.044,1.044,0,1,0-1.857.95A12.522,12.522,0,1,0,15.526,3Zm-1.054,7.3a1.044,1.044,0,0,0-.728,1.792l2.393,2.393H4.044a1.044,1.044,0,1,0,0,2.088H16.137l-2.393,2.393a1.044,1.044,0,1,0,1.476,1.476L19.3,16.355a1.044,1.044,0,0,0,0-1.662L15.22,10.612a1.044,1.044,0,0,0-.748-.316Z" transform="translate(-3 -3)"/></svg>