<svg xmlns="http://www.w3.org/2000/svg" width="10.689" height="10.689" viewBox="0 0 10.689 10.689"><defs><style>.a{fill:#fff;}</style></defs><path class="a" d="M5.532.188a5.344,5.344,0,1,0,5.344,5.344A5.345,5.345,0,0,0,5.532.188ZM7.943,7.365l-.58.578a.272.272,0,0,1-.384,0L5.532,6.5,4.085,7.943a.271.271,0,0,1-.385,0l-.58-.577a.277.277,0,0,1,0-.386L4.567,5.532,3.122,4.087a.274.274,0,0,1,0-.386L3.7,3.122a.271.271,0,0,1,.386,0L5.532,4.567,6.979,3.122a.269.269,0,0,1,.384,0l.58.577a.276.276,0,0,1,0,.388L6.5,5.532,7.943,6.979A.277.277,0,0,1,7.943,7.365Z" transform="translate(-0.188 -0.188)"/></svg>