<svg xmlns="http://www.w3.org/2000/svg" width="21.307" height="21.307" viewBox="0 0 21.307 21.307"><defs><style>.a{fill:#878787;}</style></defs><path class="a" d="M13.654,3A10.654,10.654,0,1,0,24.307,13.654,10.654,10.654,0,0,0,13.654,3Zm0,17.312a1.332,1.332,0,1,1,1.332-1.332A1.332,1.332,0,0,1,13.654,20.312ZM15.489,14.1c-.588.542-.948.9-.948,1.332H12.766a3.631,3.631,0,0,1,1.519-2.637c.709-.655,1.144-1.093,1.144-1.8a1.776,1.776,0,0,0-3.551,0H10.1a3.551,3.551,0,0,1,7.1,0A4.129,4.129,0,0,1,15.489,14.1Z" transform="translate(-3 -3)"/></svg>