<svg xmlns="http://www.w3.org/2000/svg" width="20" height="20" viewBox="0 0 20 20"><defs><style>.a{fill:#10116e;}</style></defs><path class="a" d="M11.424,2a.5.5,0,0,0-.494.418l-.283,1.705a7.91,7.91,0,0,0-1.41.381l-1.1-1.336A.5.5,0,0,0,7.5,3.053l-1,.576a.5.5,0,0,0-.219.607l.605,1.617A8.092,8.092,0,0,0,5.854,6.889L4.236,6.283a.5.5,0,0,0-.607.219l-.576,1a.5.5,0,0,0,.115.637L4.5,9.236a7.91,7.91,0,0,0-.381,1.41l-1.705.283A.5.5,0,0,0,2,11.424v1.152a.5.5,0,0,0,.418.494l1.705.283a7.912,7.912,0,0,0,.381,1.41l-1.336,1.1a.5.5,0,0,0-.115.637l.576,1a.5.5,0,0,0,.607.219l1.617-.606a8.089,8.089,0,0,0,1.035,1.035l-.605,1.617a.5.5,0,0,0,.219.607l1,.576a.5.5,0,0,0,.637-.115l1.1-1.336a7.917,7.917,0,0,0,1.412.381l.283,1.7a.5.5,0,0,0,.494.418h1.152a.5.5,0,0,0,.494-.418l.283-1.7a7.917,7.917,0,0,0,1.41-.381l1.1,1.336a.5.5,0,0,0,.637.115l1-.576a.5.5,0,0,0,.219-.607l-.606-1.617a8.087,8.087,0,0,0,1.035-1.035l1.617.606a.5.5,0,0,0,.607-.219l.576-1a.5.5,0,0,0-.115-.637l-1.336-1.1a7.916,7.916,0,0,0,.381-1.412l1.7-.283A.5.5,0,0,0,22,12.576V11.424a.5.5,0,0,0-.418-.494l-1.7-.283a7.915,7.915,0,0,0-.381-1.41l1.336-1.1a.5.5,0,0,0,.115-.637l-.576-1a.5.5,0,0,0-.607-.219l-1.617.605a8.089,8.089,0,0,0-1.035-1.035l.606-1.617a.5.5,0,0,0-.219-.607l-1-.576a.5.5,0,0,0-.637.115L14.766,4.5a7.909,7.909,0,0,0-1.412-.381L13.07,2.418A.5.5,0,0,0,12.576,2ZM11,6.09V9.174a3,3,0,0,0-1.949,3.375L6.379,14.09A5.986,5.986,0,0,1,11,6.09Zm2,0a5.983,5.983,0,0,1,4.619,8l-2.672-1.545A2.979,2.979,0,0,0,13,9.176Zm.947,8.187,2.682,1.549a6.015,6.015,0,0,1-9.258,0l2.68-1.547a2.991,2.991,0,0,0,3.9,0Z" transform="translate(-2 -2)"/></svg>